<svg width="64" height="64" viewBox="0 0 64 64" fill="none" xmlns="http://www.w3.org/2000/svg">
<path d="M31.5087 9.86676C21.1027 9.84625 10.8245 15.0172 11.6376 25.8876C25.203 27.0008 38.6601 26.756 52.0843 25.9522C53.1175 15.4356 42.245 9.88795 31.5087 9.86676ZM37.356 12.2101C38.4463 12.2101 39.3302 12.6464 39.3302 13.1847C39.3302 13.7231 38.4463 14.1594 37.356 14.1594C36.2655 14.1594 35.3816 13.7231 35.3816 13.1848C35.3816 12.6464 36.2655 12.2101 37.356 12.2101ZM26.4329 14.1466C27.5232 14.1466 28.4072 14.5831 28.4072 15.1213C28.4072 15.6596 27.5232 16.096 26.4329 16.096C25.3426 16.096 24.4587 15.6596 24.4586 15.1214C24.4586 14.5831 25.3426 14.1466 26.4329 14.1466ZM43.8213 17.4689C44.9116 17.4689 45.7955 17.9052 45.7956 18.4435C45.7956 18.9818 44.9116 19.4181 43.8213 19.4181C42.731 19.4181 41.847 18.9818 41.847 18.4435C41.847 17.9052 42.731 17.4689 43.8213 17.4689ZM17.1035 19.5719C18.1938 19.5719 19.0777 20.0083 19.0778 20.5465C19.0778 21.0849 18.1938 21.5212 17.1035 21.5212C16.0132 21.5212 15.1292 21.0849 15.1292 20.5465C15.1292 20.0083 16.0132 19.5719 17.1035 19.5719ZM47.7451 22.5058C48.8354 22.5058 49.7193 22.9422 49.7193 23.4804C49.7193 24.0187 48.8355 24.455 47.745 24.455C46.6547 24.455 45.7708 24.0187 45.7708 23.4804C45.7708 22.9422 46.6548 22.5058 47.7451 22.5058ZM34.2773 23.2915C35.3678 23.2915 36.2518 23.728 36.2516 24.2663C36.2516 24.8046 35.3677 25.2409 34.2772 25.2409C33.1869 25.2409 32.303 24.8046 32.303 24.2663C32.3028 23.7279 33.1868 23.2915 34.2772 23.2915H34.2773ZM12.6267 27.7361C10.7747 27.7756 11.745 30.1272 14.0312 30.1358C26.5854 31.1327 37.1438 31.0817 50.3708 29.8995C51.9427 29.635 52.8329 28.6214 51.4278 27.7541C38.5783 28.5031 25.6651 28.735 12.6267 27.7361ZM51.9845 31.7021C39.1696 33.0302 24.8757 32.7299 13.8922 31.888C9.304 31.28 9.21689 36.4569 12.2307 36.9964C26.5061 38.4283 38.7762 38.0447 52.7714 36.9446C55.2135 36.8329 54.1927 31.5415 51.9845 31.7021ZM9.04932 42.8084L10.5466 43.7297C11.1659 42.9078 12.2923 40.5998 13.8004 40.5859C15.6678 40.5689 15.9825 44.424 17.9 44.4046C20.1077 44.3823 21.5941 41.3237 23.0218 41.3887C25.179 41.4872 25.5934 44.8946 27.2754 44.8973C29.6278 44.9012 30.3456 41.3436 31.8462 41.4467C33.9417 41.5908 35.0929 44.2079 36.8148 44.2962C38.6707 44.3913 39.8084 41.0709 41.0399 41.0981C42.662 41.1339 43.8046 44.268 46.3368 44.3396C47.8354 44.382 49.2366 40.6862 49.9506 40.7444C51.3585 40.859 52.5433 42.751 53.4745 44.1463L54.9505 43.1916C53.7758 41.608 52.0094 38.8529 49.8179 38.893C47.7762 38.9303 47.2839 42.6151 46.097 42.5984C43.8235 42.5664 42.8005 39.4574 40.9605 39.342C39.0702 39.2234 37.9844 42.6267 36.7268 42.542C34.8758 42.4172 34.0604 39.6943 31.8952 39.6204C29.9792 39.5549 28.5631 43.299 27.3256 43.1403C25.5542 42.9131 25.3504 39.5878 23.0954 39.4454C21.2292 39.3275 19.4272 42.434 18.1819 42.375C16.4705 42.2936 15.7168 38.4468 13.7474 38.4701C11.6159 38.4953 9.92461 41.433 9.04932 42.8084ZM13.6932 46.341C12.8785 46.408 11.916 46.7561 11.5594 47.5543C11.3199 48.2048 13.4317 48.39 13.6213 48.4034C26.1813 49.1948 38.4605 49.21 51.6877 48.272C52.5886 48.2081 53.0485 47.9647 53.1772 47.841C53.4822 47.0394 50.9146 46.4801 50.6559 46.4734C32.5885 46.3584 23.3847 46.6891 13.6932 46.341ZM52.3216 49.973C39.9401 50.6524 24.6673 50.8894 12.4658 50.0421L12.5167 53.8184C25.7898 54.2693 39.4354 54.2081 52.2294 53.8098L52.3216 49.973Z" fill="#F47600"/>
</svg>
